<mxfile host="Electron" agent="Mozilla/5.0 (Windows NT 10.0; Win64; x64) AppleWebKit/537.36 (KHTML, like Gecko) draw.io/26.1.1 Chrome/132.0.6834.210 Electron/34.3.3 Safari/537.36" version="26.1.1">
  <diagram name="Page-1" id="_BPq3MM2jnS2PeoBVCWX">
    <mxGraphModel dx="880" dy="572" grid="1" gridSize="10" guides="1" tooltips="1" connect="1" arrows="1" fold="1" page="1" pageScale="1" pageWidth="850" pageHeight="1100" math="0" shadow="0">
      <root>
        <mxCell id="0" />
        <mxCell id="1" parent="0" />
        <mxCell id="jtSjxtjc0XwHa7krCjHR-35" value="" style="rounded=1;whiteSpace=wrap;html=1;fillColor=none;dashed=1;" parent="1" vertex="1">
          <mxGeometry x="60" y="110" width="620" height="470" as="geometry" />
        </mxCell>
        <mxCell id="jtSjxtjc0XwHa7krCjHR-37" value="" style="rounded=1;whiteSpace=wrap;html=1;fillColor=none;dashed=1;" parent="1" vertex="1">
          <mxGeometry x="720" y="20" width="450" height="560" as="geometry" />
        </mxCell>
        <mxCell id="jtSjxtjc0XwHa7krCjHR-1" value="crm_cust_info" style="swimlane;fontStyle=0;childLayout=stackLayout;horizontal=1;startSize=30;horizontalStack=0;resizeParent=1;resizeParentMax=0;resizeLast=0;collapsible=1;marginBottom=0;whiteSpace=wrap;html=1;rounded=1;fillColor=#1ba1e2;strokeColor=#006EAF;fontColor=#ffffff;fontSize=24;" parent="1" vertex="1">
          <mxGeometry x="420" y="160" width="210" height="90" as="geometry">
            <mxRectangle x="30" y="100" width="190" height="40" as="alternateBounds" />
          </mxGeometry>
        </mxCell>
        <mxCell id="jtSjxtjc0XwHa7krCjHR-2" value="cst_id" style="text;strokeColor=none;fillColor=none;align=left;verticalAlign=middle;spacingLeft=4;spacingRight=4;overflow=hidden;points=[[0,0.5],[1,0.5]];portConstraint=eastwest;rotatable=0;whiteSpace=wrap;html=1;fontSize=24;" parent="jtSjxtjc0XwHa7krCjHR-1" vertex="1">
          <mxGeometry y="30" width="210" height="30" as="geometry" />
        </mxCell>
        <mxCell id="jtSjxtjc0XwHa7krCjHR-23" value="cst_key" style="text;strokeColor=none;fillColor=none;align=left;verticalAlign=middle;spacingLeft=4;spacingRight=4;overflow=hidden;points=[[0,0.5],[1,0.5]];portConstraint=eastwest;rotatable=0;whiteSpace=wrap;html=1;fontSize=24;" parent="jtSjxtjc0XwHa7krCjHR-1" vertex="1">
          <mxGeometry y="60" width="210" height="30" as="geometry" />
        </mxCell>
        <mxCell id="jtSjxtjc0XwHa7krCjHR-5" value="&lt;font style=&quot;font-size: 24px;&quot;&gt;Integration Model&lt;/font&gt; (How to relate the tables)" style="text;html=1;align=center;verticalAlign=middle;whiteSpace=wrap;rounded=0;" parent="1" vertex="1">
          <mxGeometry x="250" y="10" width="350" height="60" as="geometry" />
        </mxCell>
        <mxCell id="jtSjxtjc0XwHa7krCjHR-6" value="&lt;font style=&quot;font-size: 20px;&quot;&gt;Customer Information&lt;/font&gt;" style="text;html=1;align=center;verticalAlign=middle;whiteSpace=wrap;rounded=0;" parent="1" vertex="1">
          <mxGeometry x="420" y="130" width="210" height="30" as="geometry" />
        </mxCell>
        <mxCell id="jtSjxtjc0XwHa7krCjHR-8" value="crm_prd_info" style="swimlane;fontStyle=0;childLayout=stackLayout;horizontal=1;startSize=30;horizontalStack=0;resizeParent=1;resizeParentMax=0;resizeLast=0;collapsible=1;marginBottom=0;whiteSpace=wrap;html=1;rounded=1;fillColor=#1ba1e2;strokeColor=#006EAF;fontColor=#ffffff;fontSize=24;" parent="1" vertex="1">
          <mxGeometry x="420" y="320" width="210" height="60" as="geometry">
            <mxRectangle x="30" y="100" width="190" height="40" as="alternateBounds" />
          </mxGeometry>
        </mxCell>
        <mxCell id="jtSjxtjc0XwHa7krCjHR-9" value="prd_key" style="text;strokeColor=none;fillColor=none;align=left;verticalAlign=middle;spacingLeft=4;spacingRight=4;overflow=hidden;points=[[0,0.5],[1,0.5]];portConstraint=eastwest;rotatable=0;whiteSpace=wrap;html=1;fontSize=24;" parent="jtSjxtjc0XwHa7krCjHR-8" vertex="1">
          <mxGeometry y="30" width="210" height="30" as="geometry" />
        </mxCell>
        <mxCell id="jtSjxtjc0XwHa7krCjHR-10" value="&lt;font style=&quot;font-size: 20px;&quot;&gt;Current &amp;amp; History Product Information&lt;/font&gt;" style="text;html=1;align=center;verticalAlign=middle;whiteSpace=wrap;rounded=0;" parent="1" vertex="1">
          <mxGeometry x="350" y="290" width="350" height="30" as="geometry" />
        </mxCell>
        <mxCell id="jtSjxtjc0XwHa7krCjHR-13" value="crm_sales_details" style="swimlane;fontStyle=0;childLayout=stackLayout;horizontal=1;startSize=30;horizontalStack=0;resizeParent=1;resizeParentMax=0;resizeLast=0;collapsible=1;marginBottom=0;whiteSpace=wrap;html=1;rounded=1;fillColor=#1ba1e2;strokeColor=#006EAF;fontColor=#ffffff;fontSize=24;" parent="1" vertex="1">
          <mxGeometry x="70" y="230" width="210" height="90" as="geometry">
            <mxRectangle x="30" y="100" width="190" height="40" as="alternateBounds" />
          </mxGeometry>
        </mxCell>
        <mxCell id="jtSjxtjc0XwHa7krCjHR-14" value="sales_cust_id" style="text;strokeColor=none;fillColor=none;align=left;verticalAlign=middle;spacingLeft=4;spacingRight=4;overflow=hidden;points=[[0,0.5],[1,0.5]];portConstraint=eastwest;rotatable=0;whiteSpace=wrap;html=1;fontSize=24;" parent="jtSjxtjc0XwHa7krCjHR-13" vertex="1">
          <mxGeometry y="30" width="210" height="30" as="geometry" />
        </mxCell>
        <mxCell id="jtSjxtjc0XwHa7krCjHR-16" value="sales_prd_key" style="text;strokeColor=none;fillColor=none;align=left;verticalAlign=middle;spacingLeft=4;spacingRight=4;overflow=hidden;points=[[0,0.5],[1,0.5]];portConstraint=eastwest;rotatable=0;whiteSpace=wrap;html=1;fontSize=24;" parent="jtSjxtjc0XwHa7krCjHR-13" vertex="1">
          <mxGeometry y="60" width="210" height="30" as="geometry" />
        </mxCell>
        <mxCell id="jtSjxtjc0XwHa7krCjHR-15" value="&lt;font style=&quot;font-size: 20px;&quot;&gt;Transactional Records about Sales &amp;amp; Orders&lt;/font&gt;" style="text;html=1;align=center;verticalAlign=middle;whiteSpace=wrap;rounded=0;" parent="1" vertex="1">
          <mxGeometry x="60" y="190" width="240" height="30" as="geometry" />
        </mxCell>
        <mxCell id="jtSjxtjc0XwHa7krCjHR-17" style="edgeStyle=orthogonalEdgeStyle;rounded=0;orthogonalLoop=1;jettySize=auto;html=1;entryX=0;entryY=0.5;entryDx=0;entryDy=0;" parent="1" source="jtSjxtjc0XwHa7krCjHR-14" target="jtSjxtjc0XwHa7krCjHR-2" edge="1">
          <mxGeometry relative="1" as="geometry" />
        </mxCell>
        <mxCell id="jtSjxtjc0XwHa7krCjHR-18" style="edgeStyle=orthogonalEdgeStyle;rounded=0;orthogonalLoop=1;jettySize=auto;html=1;entryX=0;entryY=0.5;entryDx=0;entryDy=0;" parent="1" source="jtSjxtjc0XwHa7krCjHR-16" target="jtSjxtjc0XwHa7krCjHR-9" edge="1">
          <mxGeometry relative="1" as="geometry" />
        </mxCell>
        <mxCell id="jtSjxtjc0XwHa7krCjHR-19" value="erp_cust_az12" style="swimlane;fontStyle=0;childLayout=stackLayout;horizontal=1;startSize=30;horizontalStack=0;resizeParent=1;resizeParentMax=0;resizeLast=0;collapsible=1;marginBottom=0;whiteSpace=wrap;html=1;rounded=1;fillColor=#e3c800;strokeColor=#B09500;fontSize=24;fontColor=#000000;swimlaneFillColor=none;gradientColor=none;swimlaneLine=1;glass=0;" parent="1" vertex="1">
          <mxGeometry x="850" y="133" width="210" height="60" as="geometry">
            <mxRectangle x="30" y="100" width="190" height="40" as="alternateBounds" />
          </mxGeometry>
        </mxCell>
        <mxCell id="jtSjxtjc0XwHa7krCjHR-20" value="cid" style="text;strokeColor=none;fillColor=none;align=left;verticalAlign=middle;spacingLeft=4;spacingRight=4;overflow=hidden;points=[[0,0.5],[1,0.5]];portConstraint=eastwest;rotatable=0;whiteSpace=wrap;html=1;fontSize=24;" parent="jtSjxtjc0XwHa7krCjHR-19" vertex="1">
          <mxGeometry y="30" width="210" height="30" as="geometry" />
        </mxCell>
        <mxCell id="jtSjxtjc0XwHa7krCjHR-21" value="&lt;font style=&quot;font-size: 20px;&quot;&gt;Extra Customer Info (Birth Date)&lt;/font&gt;" style="text;html=1;align=center;verticalAlign=middle;whiteSpace=wrap;rounded=0;" parent="1" vertex="1">
          <mxGeometry x="830" y="93" width="230" height="30" as="geometry" />
        </mxCell>
        <mxCell id="jtSjxtjc0XwHa7krCjHR-25" value="erp_loc_a101" style="swimlane;fontStyle=0;childLayout=stackLayout;horizontal=1;startSize=30;horizontalStack=0;resizeParent=1;resizeParentMax=0;resizeLast=0;collapsible=1;marginBottom=0;whiteSpace=wrap;html=1;rounded=1;fillColor=#e3c800;strokeColor=#B09500;fontSize=24;fontColor=#000000;swimlaneFillColor=none;gradientColor=none;swimlaneLine=1;glass=0;" parent="1" vertex="1">
          <mxGeometry x="850" y="298" width="210" height="60" as="geometry">
            <mxRectangle x="30" y="100" width="190" height="40" as="alternateBounds" />
          </mxGeometry>
        </mxCell>
        <mxCell id="jtSjxtjc0XwHa7krCjHR-26" value="cid" style="text;strokeColor=none;fillColor=none;align=left;verticalAlign=middle;spacingLeft=4;spacingRight=4;overflow=hidden;points=[[0,0.5],[1,0.5]];portConstraint=eastwest;rotatable=0;whiteSpace=wrap;html=1;fontSize=24;" parent="jtSjxtjc0XwHa7krCjHR-25" vertex="1">
          <mxGeometry y="30" width="210" height="30" as="geometry" />
        </mxCell>
        <mxCell id="jtSjxtjc0XwHa7krCjHR-27" value="&lt;font style=&quot;font-size: 20px;&quot;&gt;Location of Customers (Country)&lt;/font&gt;" style="text;html=1;align=center;verticalAlign=middle;whiteSpace=wrap;rounded=0;" parent="1" vertex="1">
          <mxGeometry x="850" y="260" width="210" height="30" as="geometry" />
        </mxCell>
        <mxCell id="jtSjxtjc0XwHa7krCjHR-29" style="edgeStyle=orthogonalEdgeStyle;rounded=0;orthogonalLoop=1;jettySize=auto;html=1;entryX=0;entryY=0.5;entryDx=0;entryDy=0;" parent="1" source="jtSjxtjc0XwHa7krCjHR-23" target="jtSjxtjc0XwHa7krCjHR-20" edge="1">
          <mxGeometry relative="1" as="geometry" />
        </mxCell>
        <mxCell id="jtSjxtjc0XwHa7krCjHR-30" style="edgeStyle=orthogonalEdgeStyle;rounded=0;orthogonalLoop=1;jettySize=auto;html=1;entryX=0;entryY=0.5;entryDx=0;entryDy=0;" parent="1" source="jtSjxtjc0XwHa7krCjHR-23" target="jtSjxtjc0XwHa7krCjHR-26" edge="1">
          <mxGeometry relative="1" as="geometry" />
        </mxCell>
        <mxCell id="jtSjxtjc0XwHa7krCjHR-31" value="erp_px_cat_g1v2" style="swimlane;fontStyle=0;childLayout=stackLayout;horizontal=1;startSize=30;horizontalStack=0;resizeParent=1;resizeParentMax=0;resizeLast=0;collapsible=1;marginBottom=0;whiteSpace=wrap;html=1;rounded=1;fillColor=#e3c800;strokeColor=#B09500;fontSize=24;fontColor=#000000;swimlaneFillColor=none;gradientColor=none;swimlaneLine=1;glass=0;" parent="1" vertex="1">
          <mxGeometry x="850" y="468" width="210" height="60" as="geometry">
            <mxRectangle x="30" y="100" width="190" height="40" as="alternateBounds" />
          </mxGeometry>
        </mxCell>
        <mxCell id="jtSjxtjc0XwHa7krCjHR-32" value="id" style="text;strokeColor=none;fillColor=none;align=left;verticalAlign=middle;spacingLeft=4;spacingRight=4;overflow=hidden;points=[[0,0.5],[1,0.5]];portConstraint=eastwest;rotatable=0;whiteSpace=wrap;html=1;fontSize=24;" parent="jtSjxtjc0XwHa7krCjHR-31" vertex="1">
          <mxGeometry y="30" width="210" height="30" as="geometry" />
        </mxCell>
        <mxCell id="jtSjxtjc0XwHa7krCjHR-33" value="&lt;span style=&quot;font-size: 20px;&quot;&gt;Product Categories&lt;/span&gt;" style="text;html=1;align=center;verticalAlign=middle;whiteSpace=wrap;rounded=0;" parent="1" vertex="1">
          <mxGeometry x="850" y="430" width="210" height="30" as="geometry" />
        </mxCell>
        <mxCell id="jtSjxtjc0XwHa7krCjHR-34" style="edgeStyle=orthogonalEdgeStyle;rounded=0;orthogonalLoop=1;jettySize=auto;html=1;entryX=0.01;entryY=0.733;entryDx=0;entryDy=0;entryPerimeter=0;" parent="1" source="jtSjxtjc0XwHa7krCjHR-9" target="jtSjxtjc0XwHa7krCjHR-32" edge="1">
          <mxGeometry relative="1" as="geometry" />
        </mxCell>
        <mxCell id="jtSjxtjc0XwHa7krCjHR-36" value="&lt;b&gt;&lt;font style=&quot;font-size: 24px;&quot;&gt;CRM&lt;/font&gt;&lt;/b&gt;" style="rounded=0;whiteSpace=wrap;html=1;fillColor=#1ba1e2;strokeColor=#006EAF;fontColor=#ffffff;" parent="1" vertex="1">
          <mxGeometry x="290" y="79" width="120" height="60" as="geometry" />
        </mxCell>
        <mxCell id="jtSjxtjc0XwHa7krCjHR-38" value="&lt;b&gt;&lt;font style=&quot;font-size: 24px;&quot;&gt;ERP&lt;/font&gt;&lt;/b&gt;" style="rounded=0;whiteSpace=wrap;html=1;fillColor=#1ba1e2;strokeColor=#006EAF;fontColor=#ffffff;" parent="1" vertex="1">
          <mxGeometry x="895" y="15" width="120" height="60" as="geometry" />
        </mxCell>
        <mxCell id="46FFe4MXuCb3gztrFSdU-1" value="&lt;b&gt;&lt;font style=&quot;font-size: 20px;&quot;&gt;CUSTOMER&lt;/font&gt;&lt;/b&gt;" style="text;html=1;strokeColor=#3700CC;fillColor=#6a00ff;align=center;verticalAlign=middle;whiteSpace=wrap;overflow=hidden;fontColor=#ffffff;" vertex="1" parent="1">
          <mxGeometry x="420" y="250" width="210" height="30" as="geometry" />
        </mxCell>
        <mxCell id="46FFe4MXuCb3gztrFSdU-2" value="&lt;b&gt;&lt;font style=&quot;font-size: 20px;&quot;&gt;CUSTOMER&lt;/font&gt;&lt;/b&gt;" style="text;html=1;strokeColor=#3700CC;fillColor=#6a00ff;align=center;verticalAlign=middle;whiteSpace=wrap;overflow=hidden;fontColor=#ffffff;" vertex="1" parent="1">
          <mxGeometry x="850" y="358" width="210" height="30" as="geometry" />
        </mxCell>
        <mxCell id="46FFe4MXuCb3gztrFSdU-3" value="&lt;b&gt;&lt;font style=&quot;font-size: 20px;&quot;&gt;CUSTOMER&lt;/font&gt;&lt;/b&gt;" style="text;html=1;strokeColor=#3700CC;fillColor=#6a00ff;align=center;verticalAlign=middle;whiteSpace=wrap;overflow=hidden;fontColor=#ffffff;" vertex="1" parent="1">
          <mxGeometry x="850" y="193" width="210" height="30" as="geometry" />
        </mxCell>
        <mxCell id="46FFe4MXuCb3gztrFSdU-4" value="&lt;b&gt;&lt;font style=&quot;font-size: 20px;&quot;&gt;PRODUCT&lt;/font&gt;&lt;/b&gt;" style="text;html=1;strokeColor=#6F0000;fillColor=#a20025;align=center;verticalAlign=middle;whiteSpace=wrap;overflow=hidden;fontColor=#ffffff;" vertex="1" parent="1">
          <mxGeometry x="420" y="380" width="210" height="30" as="geometry" />
        </mxCell>
        <mxCell id="46FFe4MXuCb3gztrFSdU-5" value="&lt;b&gt;&lt;font style=&quot;font-size: 20px;&quot;&gt;PRODUCT&lt;/font&gt;&lt;/b&gt;" style="text;html=1;strokeColor=#6F0000;fillColor=#a20025;align=center;verticalAlign=middle;whiteSpace=wrap;overflow=hidden;fontColor=#ffffff;" vertex="1" parent="1">
          <mxGeometry x="850" y="530" width="210" height="30" as="geometry" />
        </mxCell>
        <mxCell id="46FFe4MXuCb3gztrFSdU-6" value="&lt;span style=&quot;font-size: 20px;&quot;&gt;&lt;b&gt;SALES&lt;/b&gt;&lt;/span&gt;" style="text;html=1;strokeColor=#005700;fillColor=#008a00;align=center;verticalAlign=middle;whiteSpace=wrap;overflow=hidden;fontColor=#ffffff;" vertex="1" parent="1">
          <mxGeometry x="70" y="320" width="210" height="30" as="geometry" />
        </mxCell>
      </root>
    </mxGraphModel>
  </diagram>
</mxfile>
